<svg width="19" height="19" viewBox="0 0 19 19" fill="none" xmlns="http://www.w3.org/2000/svg">
<path d="M7.91667 18.8944C3.43056 18.1028 0 14.1972 0 9.5C0 4.275 4.275 0 9.5 0C14.725 0 19 4.275 19 9.5C19 14.1972 15.5694 18.1028 11.0833 18.8944L10.5556 18.4722H8.44444L7.91667 18.8944Z" fill="#8C939C"/>
<path d="M13.1945 12.139L13.6167 9.50014H11.0834V7.65291C11.0834 6.91403 11.3473 6.33347 12.5084 6.33347H13.7223V3.90569C13.0362 3.80014 12.2973 3.69458 11.6112 3.69458C9.4473 3.69458 7.91675 5.01402 7.91675 7.38902V9.50014H5.54175V12.139H7.91675V18.8418C8.44453 18.9474 8.9723 19.0001 9.50008 19.0001C10.0279 19.0001 10.5556 18.9474 11.0834 18.8418V12.139H13.1945Z" fill="white"/>
</svg>
