<svg width="19" height="19" viewBox="0 0 19 19" fill="none" xmlns="http://www.w3.org/2000/svg">
<g clip-path="url(#clip0)">
<path d="M18.2837 0.717565C17.8053 0.239116 17.2321 0 16.5644 0H2.43793C1.76993 0 1.1969 0.239203 0.718455 0.717565C0.240093 1.1958 0.000976562 1.76891 0.000976562 2.43678V16.5631C0.000976562 17.2309 0.240049 17.8041 0.718455 18.2824C1.1969 18.7607 1.77006 19 2.43793 19H16.5642C17.2318 19 17.8052 18.7607 18.2835 18.2824C18.762 17.8041 19.0009 17.2309 19.0009 16.5631V2.43678C19.0008 1.76878 18.762 1.19597 18.2837 0.717565ZM6.82313 6.84659C7.56937 6.12512 8.46622 5.76422 9.51354 5.76422C10.569 5.76422 11.4698 6.12512 12.2163 6.84659C12.9627 7.56818 13.3357 8.44033 13.3357 9.46287C13.3357 10.4853 12.9627 11.3575 12.2163 12.0788C11.4698 12.8006 10.5693 13.1615 9.51354 13.1615C8.46626 13.1615 7.5695 12.8003 6.82313 12.0788C6.07671 11.3574 5.70354 10.4853 5.70354 9.46287C5.70354 8.44033 6.07671 7.56822 6.82313 6.84659ZM16.8489 16.0561C16.8489 16.2704 16.7745 16.4497 16.6261 16.5941C16.4774 16.7383 16.3004 16.8105 16.094 16.8105H2.87093C2.65655 16.8105 2.47706 16.7383 2.33287 16.5941C2.18846 16.45 2.11632 16.2704 2.11632 16.0561V8.04022H3.86041C3.69555 8.55983 3.61311 9.10006 3.61311 9.6607C3.61311 11.2444 4.19029 12.5945 5.3448 13.7122C6.49944 14.8294 7.88894 15.3882 9.51349 15.3882C10.5856 15.3882 11.5751 15.1325 12.4825 14.6212C13.3896 14.1097 14.1066 13.4151 14.6348 12.5367C15.1626 11.6584 15.4265 10.6997 15.4265 9.66074C15.4265 9.1001 15.3437 8.56 15.1789 8.04026H16.849V16.0562H16.8489V16.0561ZM16.8489 5.00961C16.8489 5.24877 16.7664 5.45084 16.6012 5.61574C16.4364 5.78077 16.2344 5.86317 15.9951 5.86317H13.8429C13.6039 5.86317 13.4016 5.78073 13.2368 5.61574C13.0719 5.45084 12.9895 5.24877 12.9895 5.00961V2.96878C12.9895 2.73786 13.0719 2.53791 13.2368 2.3688C13.4017 2.19979 13.6039 2.11517 13.8429 2.11517H15.9951C16.2344 2.11517 16.4364 2.19975 16.6012 2.3688C16.7664 2.53791 16.8489 2.73786 16.8489 2.96878V5.00961Z" fill="#8C939C"/>
</g>
<defs>
<clipPath id="clip0">
<rect width="19" height="19" fill="white"/>
</clipPath>
</defs>
</svg>
