<svg width="19" height="17" viewBox="0 0 19 17" fill="none" xmlns="http://www.w3.org/2000/svg">
<path d="M18.05 3.8H14.25V2.85C14.25 2.09413 13.9497 1.36922 13.4153 0.834746C12.8808 0.300267 12.1559 0 11.4 0H7.6C6.84413 0 6.11922 0.300267 5.58475 0.834746C5.05027 1.36922 4.75 2.09413 4.75 2.85V3.8H0.95C0.698044 3.8 0.456408 3.90009 0.278249 4.07825C0.100089 4.25641 0 4.49804 0 4.75V15.2C0 15.452 0.100089 15.6936 0.278249 15.8718C0.456408 16.0499 0.698044 16.15 0.95 16.15H18.05C18.302 16.15 18.5436 16.0499 18.7218 15.8718C18.8999 15.6936 19 15.452 19 15.2V4.75C19 4.49804 18.8999 4.25641 18.7218 4.07825C18.5436 3.90009 18.302 3.8 18.05 3.8ZM6.65 2.85C6.65 2.59804 6.75009 2.35641 6.92825 2.17825C7.10641 2.00009 7.34804 1.9 7.6 1.9H11.4C11.652 1.9 11.8936 2.00009 12.0718 2.17825C12.2499 2.35641 12.35 2.59804 12.35 2.85V3.8H6.65V2.85ZM17.1 14.25H1.9V9.5H17.1V14.25ZM17.1 8.55H1.9V5.7H17.1V8.55Z" fill="#8C939C"/>
</svg>
