<svg width="19" height="16" viewBox="0 0 19 16" fill="none" xmlns="http://www.w3.org/2000/svg">
<path d="M19 1.82837C18.3013 2.13798 17.5507 2.34718 16.7616 2.44173C17.5666 1.95975 18.1841 1.19493 18.4753 0.284506C17.7222 0.731348 16.888 1.05602 16.0001 1.23007C15.2889 0.473619 14.2764 0 13.1551 0C11.0029 0 9.25733 1.74553 9.25733 3.89941C9.25733 4.204 9.29248 4.50022 9.35775 4.7864C6.11689 4.62323 3.24588 3.07099 1.32295 0.712939C0.988241 1.29032 0.795781 1.95975 0.795781 2.67269C0.795781 4.02493 1.48445 5.21902 2.5296 5.91773C1.89029 5.89681 1.28948 5.72192 0.763983 5.42989V5.48009C0.763983 7.36871 2.10702 8.94438 3.89104 9.30252C3.56302 9.39122 3.21911 9.43808 2.86431 9.43808C2.61327 9.43808 2.3681 9.41465 2.13045 9.36946C2.62666 10.9175 4.06593 12.0455 5.77213 12.0756C4.43746 13.1216 2.75636 13.745 0.930503 13.745C0.615872 13.745 0.305426 13.7266 0 13.6906C1.72545 14.7977 3.77389 15.442 5.97463 15.442C13.1459 15.442 17.0662 9.50251 17.0662 4.35127C17.0662 4.18392 17.062 4.01489 17.0545 3.84753C17.816 3.29693 18.477 2.6116 18.9983 1.83088L19 1.82837Z" fill="#8C939C"/>
</svg>
