<svg width="19" height="19" viewBox="0 0 19 19" fill="none" xmlns="http://www.w3.org/2000/svg">
<path fill-rule="evenodd" clip-rule="evenodd" d="M6.58667 0H12.4133C17.7333 0 19 1.26667 19 6.58667V12.4133C19 17.7333 17.7333 19 12.4133 19H6.58667C1.26667 19 0 17.7333 0 12.4133V6.58667C0 1.26667 1.26667 0 6.58667 0Z" fill="#8C939C"/>
<path fill-rule="evenodd" clip-rule="evenodd" d="M15.5597 6.54564C15.6477 6.25208 15.5597 6.03638 15.1407 6.03638H13.7553C13.403 6.03638 13.2406 6.22272 13.1525 6.42819C13.1525 6.42819 12.448 8.14547 11.4499 9.26095C11.127 9.58385 10.9803 9.68659 10.8041 9.68659C10.7161 9.68659 10.5886 9.58385 10.5886 9.29032V6.54564C10.5886 6.19337 10.4864 6.03638 10.1928 6.03638H8.01569C7.79556 6.03638 7.66317 6.19987 7.66317 6.35482C7.66317 6.68876 8.16217 6.76577 8.21361 7.70515V9.74533C8.21361 10.1926 8.13283 10.2737 7.9567 10.2737C7.48703 10.2737 6.34458 8.54877 5.66699 6.57498C5.53421 6.19135 5.40102 6.03638 5.04694 6.03638H3.66153C3.26569 6.03638 3.18652 6.22272 3.18652 6.42819C3.18652 6.79514 3.65621 8.61516 5.37346 11.0223C6.51829 12.6661 8.13128 13.5572 9.59903 13.5572C10.4797 13.5572 10.5886 13.3593 10.5886 13.0184V11.776C10.5886 11.3801 10.672 11.3011 10.9509 11.3011C11.1564 11.3011 11.5087 11.4039 12.3306 12.1965C13.27 13.1358 13.4248 13.5572 13.9532 13.5572H15.3386C15.7344 13.5572 15.9324 13.3593 15.8182 12.9687C15.6932 12.5794 15.2448 12.0147 14.6497 11.3452C14.3267 10.9635 13.8424 10.5526 13.6956 10.3471C13.4901 10.0829 13.5488 9.96546 13.6956 9.73064C13.6956 9.73064 15.3835 7.35288 15.5597 6.54564Z" fill="white"/>
</svg>
