<svg width="19" height="14" viewBox="0 0 19 14" fill="none" xmlns="http://www.w3.org/2000/svg">
<path d="M18.604 2.07652C18.3864 1.26042 17.7426 0.616609 16.9235 0.395959C15.4424 1.44128e-07 9.5 0 9.5 0C9.5 0 3.56061 1.44128e-07 2.07652 0.395959C1.26042 0.613586 0.616608 1.2574 0.395959 2.07652C0 3.55759 0 6.6497 0 6.6497C0 6.6497 0 9.74181 0.395959 11.2229C0.613586 12.039 1.2574 12.6828 2.07652 12.9034C3.56061 13.2994 9.5 13.2994 9.5 13.2994C9.5 13.2994 15.4424 13.2994 16.9235 12.9034C17.7396 12.6858 18.3834 12.042 18.604 11.2229C19 9.74181 19 6.6497 19 6.6497C19 6.6497 19 3.55759 18.604 2.07652Z" fill="#8C939C"/>
<path d="M7.60156 9.49992L12.5375 6.64962L7.60156 3.79932V9.49992Z" fill="white"/>
</svg>
